<?xml version="1.0" encoding="UTF-8" standalone="no"?>
<!-- Created with Inkscape (http://www.inkscape.org/) -->

<svg
   xmlns:dc="http://purl.org/dc/elements/1.1/"
   xmlns:cc="http://creativecommons.org/ns#"
   xmlns:rdf="http://www.w3.org/1999/02/22-rdf-syntax-ns#"
   xmlns:svg="http://www.w3.org/2000/svg"
   xmlns="http://www.w3.org/2000/svg"
   xmlns:sodipodi="http://sodipodi.sourceforge.net/DTD/sodipodi-0.dtd"
   xmlns:inkscape="http://www.inkscape.org/namespaces/inkscape"
   version="1.1"
   id="svg2362"
   xml:space="preserve"
   width="800"
   height="800"
   viewBox="0 0 800 800"
   sodipodi:docname="top-secret-publicdomainvectors.org [Converted].svg"
   inkscape:version="0.92.4 (5da689c313, 2019-01-14)"><metadata
     id="metadata2368"><rdf:RDF><cc:Work
         rdf:about=""><dc:format>image/svg+xml</dc:format><dc:type
           rdf:resource="http://purl.org/dc/dcmitype/StillImage" /><dc:title></dc:title></cc:Work></rdf:RDF></metadata><defs
     id="defs2366"><clipPath
       clipPathUnits="userSpaceOnUse"
       id="clipPath2378"><path
         d="M 0,600 H 600 V 0 H 0 Z"
         id="path2376"
         inkscape:connector-curvature="0" /></clipPath><clipPath
       clipPathUnits="userSpaceOnUse"
       id="clipPath2388"><path
         d="M 16.5015,398.005 H 570.216 V 257.143 H 16.5015 Z"
         id="path2386"
         inkscape:connector-curvature="0" /></clipPath></defs><sodipodi:namedview
     pagecolor="#ffffff"
     bordercolor="#666666"
     borderopacity="1"
     objecttolerance="10"
     gridtolerance="10"
     guidetolerance="10"
     inkscape:pageopacity="0"
     inkscape:pageshadow="2"
     inkscape:window-width="1920"
     inkscape:window-height="1018"
     id="namedview2364"
     showgrid="false"
     inkscape:zoom="0.68995868"
     inkscape:cx="544.0678"
     inkscape:cy="367.79661"
     inkscape:window-x="-8"
     inkscape:window-y="-8"
     inkscape:window-maximized="1"
     inkscape:current-layer="g2370" /><g
     id="g2370"
     inkscape:groupmode="layer"
     inkscape:label="top-secret-publicdomainvectors.org [Converted]"
     transform="matrix(1.3333333,0,0,-1.3333333,0,800)"><g
       id="g2372"><g
         id="g2374"
         clip-path="url(#clipPath2378)"><path
           d="m 572.452,327.574 c 0,-40.133 -124.955,-72.667 -279.093,-72.667 -154.139,0 -279.093,32.534 -279.093,72.667 0,40.133 124.954,72.667 279.093,72.667 154.138,0 279.093,-32.534 279.093,-72.667"
           style="fill:#231f20;fill-opacity:1;fill-rule:nonzero;stroke:none"
           id="path2380"
           inkscape:connector-curvature="0" /><g
           id="g2382"><g
             id="g2384" /><g
             id="g2394"><g
               clip-path="url(#clipPath2388)"
               id="g2392"><path
                 d="M 96.574,376.793 C 45.687,363.544 16.501,345.604 16.501,327.574 c 0,-18.03 29.186,-35.97 80.073,-49.219 52.535,-13.679 122.421,-21.212 196.785,-21.212 74.363,0 144.249,7.533 196.785,21.212 50.887,13.249 80.072,31.189 80.072,49.219 0,18.03 -29.185,35.97 -80.072,49.219 -52.536,13.679 -122.421,21.212 -196.785,21.212 -74.364,0 -144.25,-7.533 -196.785,-21.212"
                 style="fill:#231f20;fill-opacity:1;fill-rule:nonzero;stroke:none"
                 id="path2390"
                 inkscape:connector-curvature="0" /></g></g></g><path
           d="m 95.596,380.55 z m 1.956,-98.438 c -48.321,12.581 -77.168,29.576 -77.168,45.462 0,15.886 28.847,32.882 77.168,45.462 52.224,13.598 121.763,21.087 195.807,21.087 74.043,0 143.582,-7.489 195.806,-21.087 48.32,-12.58 77.169,-29.576 77.169,-45.462 0,-15.886 -28.849,-32.881 -77.169,-45.462 -52.224,-13.598 -121.762,-21.088 -195.806,-21.088 -74.045,0 -143.584,7.49 -195.807,21.088 M 95.596,380.55 C 42.087,366.619 12.619,347.805 12.619,327.574 c 0,-20.23 29.468,-39.044 82.977,-52.975 52.843,-13.76 123.077,-21.338 197.763,-21.338 74.685,0 144.918,7.578 197.763,21.338 53.508,13.931 82.976,32.744 82.976,52.975 0,20.231 -29.468,39.045 -82.976,52.976 -52.845,13.76 -123.078,21.338 -197.763,21.338 -74.685,0 -144.919,-7.578 -197.763,-21.338"
           style="fill:#ed1c24;fill-opacity:1;fill-rule:nonzero;stroke:none"
           id="path2396"
           inkscape:connector-curvature="0" /><path
           d="m 128.557,352.098 v -14.492 c 0,-0.691 -0.195,-1.251 -0.585,-1.678 -0.389,-0.429 -0.89,-0.643 -1.504,-0.643 -0.591,0 -1.081,0.194 -1.469,0.585 -0.39,0.391 -0.644,0.929 -0.762,1.616 l -0.354,2.165 c -0.354,2.201 -1.039,4.106 -2.053,5.715 -0.638,0.994 -1.499,1.811 -2.585,2.449 v 4.283 z m -12.25,0 v -41.639 c 0,-0.922 0.176,-1.584 0.529,-1.985 0.188,-0.237 0.365,-0.385 0.53,-0.444 0.164,-0.059 0.705,-0.207 1.623,-0.443 1.129,-0.26 1.693,-0.91 1.693,-1.95 0,-0.615 -0.306,-1.111 -0.917,-1.489 -0.447,-0.284 -1.2,-0.425 -2.259,-0.425 h -1.164 -15.82 -1.174 c -1.044,0 -1.833,0.159 -2.366,0.478 -0.533,0.319 -0.8,0.797 -0.8,1.436 0,1.04 0.568,1.69 1.707,1.95 0.925,0.236 1.471,0.384 1.637,0.443 0.166,0.059 0.332,0.207 0.498,0.444 0.355,0.401 0.533,1.063 0.533,1.985 v 41.639 z m -27.937,0 h 9.312 v -4.283 c -1.109,-0.638 -1.972,-1.455 -2.585,-2.449 -1.015,-1.609 -1.7,-3.514 -2.054,-5.715 l -0.353,-2.165 c -0.119,-0.687 -0.373,-1.225 -0.762,-1.616 -0.389,-0.391 -0.88,-0.585 -1.47,-0.585 -0.613,0 -1.115,0.214 -1.504,0.643 -0.39,0.427 -0.584,0.987 -0.584,1.678 z"
           style="fill:#ed1c24;fill-opacity:1;fill-rule:nonzero;stroke:none"
           id="path2398"
           inkscape:connector-curvature="0" /><path
           d="m 154.445,349.231 v 3.824 c 2.551,-0.118 4.883,-0.638 6.997,-1.56 2.114,-0.922 4.081,-2.268 5.9,-4.04 4.819,-4.701 7.228,-11.234 7.228,-19.598 0,-8.198 -2.304,-14.588 -6.909,-19.172 -3.543,-3.544 -7.949,-5.516 -13.216,-5.918 v 3.898 c 0.61,0.142 1.086,0.325 1.427,0.55 0.34,0.224 0.652,0.549 0.934,0.974 0.634,0.969 0.951,2.435 0.951,4.398 v 31.69 c 0,1.25 -0.212,2.241 -0.634,2.973 -0.283,0.495 -0.618,0.884 -1.004,1.167 -0.388,0.283 -0.946,0.555 -1.674,0.814 m -2.875,0 c -1.211,-0.424 -2.067,-1.002 -2.565,-1.734 -0.499,-0.731 -0.748,-1.805 -0.748,-3.22 v -31.69 c 0,-2.08 0.285,-3.546 0.855,-4.398 0.451,-0.709 1.27,-1.217 2.458,-1.524 v -3.898 c -5.254,0.425 -9.655,2.397 -13.204,5.918 -4.615,4.584 -6.921,10.974 -6.921,19.172 0,4.111 0.609,7.826 1.828,11.146 1.219,3.319 3.022,6.137 5.413,8.452 1.821,1.772 3.785,3.118 5.892,4.04 2.105,0.922 4.436,1.442 6.992,1.56 z"
           style="fill:#ed1c24;fill-opacity:1;fill-rule:nonzero;stroke:none"
           id="path2400"
           inkscape:connector-curvature="0" /><path
           d="m 201.272,322.267 v 3.794 c 1.008,0.236 1.717,0.484 2.127,0.744 0.411,0.259 0.768,0.662 1.073,1.206 0.492,0.922 0.738,2.163 0.738,3.723 v 11.329 c 0,1.109 -0.083,1.936 -0.248,2.479 -0.166,0.543 -0.496,1.04 -0.992,1.489 -0.686,0.661 -1.607,1.074 -2.764,1.24 v 3.827 c 4.869,0 8.463,-0.461 10.78,-1.382 2.671,-1.063 4.787,-2.693 6.348,-4.889 1.584,-2.244 2.376,-4.996 2.376,-8.255 0,-3.637 -0.803,-6.614 -2.407,-8.928 -1.606,-2.291 -3.849,-3.981 -6.728,-5.067 -2.385,-0.874 -5.818,-1.31 -10.303,-1.31 m -3,29.831 v -41.639 c 0,-0.922 0.176,-1.584 0.53,-1.985 0.187,-0.237 0.364,-0.385 0.529,-0.444 0.164,-0.059 0.705,-0.207 1.623,-0.443 1.129,-0.26 1.693,-0.91 1.693,-1.95 0,-0.615 -0.305,-1.111 -0.917,-1.489 -0.447,-0.284 -1.188,-0.425 -2.223,-0.425 h -1.199 -15.821 -0.922 c -0.853,0 -1.511,0.159 -1.974,0.478 -0.463,0.319 -0.694,0.774 -0.694,1.365 0,0.969 0.474,1.608 1.422,1.915 0.782,0.26 1.238,0.419 1.369,0.479 0.129,0.059 0.265,0.194 0.408,0.407 0.284,0.378 0.426,0.981 0.426,1.809 v 35.481 c 0,0.825 -0.142,1.427 -0.426,1.805 -0.143,0.212 -0.279,0.348 -0.408,0.406 -0.131,0.059 -0.587,0.219 -1.369,0.479 -0.948,0.306 -1.422,0.943 -1.422,1.911 0,0.59 0.231,1.044 0.694,1.362 0.463,0.318 1.121,0.478 1.974,0.478 h 0.922 z"
           style="fill:#ed1c24;fill-opacity:1;fill-rule:nonzero;stroke:none"
           id="path2402"
           inkscape:connector-curvature="0" /><path
           d="m 262.378,348.983 v 3.894 c 1.414,-0.096 2.641,-0.28 3.678,-0.554 1.037,-0.274 2.51,-0.816 4.42,-1.627 0.471,-0.191 0.86,-0.286 1.167,-0.286 0.447,0 0.777,0.153 0.989,0.457 l 0.779,1.02 c 0.377,0.515 0.836,0.773 1.379,0.773 0.636,0 1.101,-0.227 1.396,-0.681 0.295,-0.454 0.442,-1.169 0.442,-2.146 v -11.681 c 0,-0.693 -0.195,-1.261 -0.584,-1.704 -0.388,-0.442 -0.889,-0.663 -1.502,-0.663 -0.471,0 -0.908,0.153 -1.308,0.461 -0.213,0.19 -0.384,0.42 -0.513,0.692 -0.13,0.272 -0.254,0.727 -0.371,1.366 -0.26,1.159 -0.708,2.353 -1.345,3.584 -0.636,1.229 -1.379,2.329 -2.226,3.3 -1.697,1.915 -3.831,3.18 -6.401,3.795 m -4.625,-42.176 v -4.04 c -1.938,0 -4.078,0.559 -6.418,1.678 -0.875,0.405 -1.477,0.667 -1.808,0.786 -0.331,0.12 -0.651,0.179 -0.957,0.179 -0.473,0 -0.827,-0.078 -1.064,-0.233 -0.236,-0.156 -0.615,-0.544 -1.134,-1.165 -0.426,-0.526 -0.887,-0.789 -1.383,-0.789 -1.324,0 -1.986,1.017 -1.986,3.052 v 12.908 c 0,0.662 0.189,1.224 0.568,1.686 0.378,0.462 0.85,0.705 1.418,0.729 0.519,0.023 0.928,-0.125 1.223,-0.444 0.295,-0.319 0.549,-0.881 0.762,-1.684 0.544,-2.034 1.33,-3.938 2.359,-5.711 1.027,-1.774 2.227,-3.276 3.598,-4.505 1.395,-1.277 3.002,-2.093 4.822,-2.447 m 1.813,46.248 v -4.072 c -1.465,-0.402 -2.581,-1.022 -3.349,-1.861 -0.767,-0.839 -1.151,-1.872 -1.151,-3.101 0,-1.181 0.318,-2.215 0.957,-3.101 0.638,-0.887 1.678,-1.732 3.119,-2.534 0.992,-0.543 3.236,-1.583 6.733,-3.118 2.127,-0.922 3.775,-1.755 4.945,-2.499 1.17,-0.745 2.274,-1.672 3.313,-2.783 2.788,-2.929 4.183,-6.415 4.183,-10.455 0,-3.049 -0.755,-5.837 -2.266,-8.365 -1.509,-2.528 -3.587,-4.513 -6.229,-5.954 -1.416,-0.756 -2.968,-1.353 -4.655,-1.79 -1.688,-0.437 -3.262,-0.655 -4.725,-0.655 v 4.04 c 2.055,0.496 3.537,1.186 4.447,2.073 0.91,0.886 1.365,2.085 1.365,3.597 0,1.583 -0.709,2.977 -2.127,4.182 -0.945,0.779 -2.74,1.747 -5.386,2.905 -2.907,1.276 -4.898,2.186 -5.973,2.729 -1.075,0.543 -2.108,1.182 -3.1,1.914 -4.443,3.166 -6.664,7.383 -6.664,12.652 0,2.694 0.554,5.18 1.664,7.46 1.108,2.28 2.654,4.117 4.636,5.511 2.76,1.937 6.181,3.012 10.263,3.225"
           style="fill:#ed1c24;fill-opacity:1;fill-rule:nonzero;stroke:none"
           id="path2404"
           inkscape:connector-curvature="0" /><path
           d="m 306.385,303.723 v 3.825 c 1.536,0.236 2.806,0.566 3.811,0.992 1.004,0.425 2.015,1.074 3.032,1.948 1.016,0.873 1.826,1.777 2.428,2.709 0.603,0.933 1.176,2.167 1.72,3.702 0.26,0.756 0.532,1.27 0.815,1.541 0.284,0.272 0.674,0.408 1.171,0.408 0.661,0 1.122,-0.196 1.382,-0.585 0.26,-0.39 0.391,-1.069 0.391,-2.036 v -12.504 z m 0,48.375 h 14.25 V 339.57 c 0,-0.735 -0.142,-1.268 -0.425,-1.6 -0.283,-0.332 -0.731,-0.497 -1.343,-0.497 -0.519,0 -0.896,0.105 -1.132,0.318 -0.236,0.213 -0.46,0.649 -0.672,1.311 -0.896,2.739 -2.21,4.829 -3.943,6.269 -1.732,1.441 -3.977,2.303 -6.735,2.586 z m -0.25,-25.788 v 4.113 c 1.372,0.657 2.389,1.374 3.052,2.149 0.662,0.776 1.147,1.809 1.455,3.102 0.189,0.892 0.437,1.509 0.745,1.849 0.307,0.341 0.745,0.512 1.313,0.512 0.757,0 1.278,-0.291 1.562,-0.872 0.165,-0.303 0.248,-0.989 0.248,-2.059 v -13.51 c 0,-1.108 -0.125,-1.874 -0.373,-2.298 -0.248,-0.424 -0.704,-0.636 -1.366,-0.636 -0.544,0 -0.97,0.165 -1.278,0.495 -0.307,0.33 -0.555,0.886 -0.745,1.665 -0.402,1.629 -0.977,2.88 -1.722,3.754 -0.745,0.873 -1.709,1.452 -2.891,1.736 m -2.938,25.788 v -48.375 h -15.785 -0.922 c -0.853,0 -1.511,0.159 -1.974,0.478 -0.463,0.319 -0.694,0.774 -0.694,1.365 0,0.969 0.474,1.608 1.422,1.915 0.781,0.26 1.237,0.419 1.368,0.479 0.13,0.059 0.266,0.194 0.409,0.407 0.284,0.378 0.426,0.981 0.426,1.809 v 35.481 c 0,0.825 -0.142,1.427 -0.426,1.805 -0.143,0.212 -0.279,0.348 -0.409,0.406 -0.131,0.059 -0.587,0.219 -1.368,0.479 -0.948,0.306 -1.422,0.943 -1.422,1.911 0,0.59 0.231,1.044 0.694,1.362 0.463,0.318 1.121,0.478 1.974,0.478 h 0.922 z"
           style="fill:#ed1c24;fill-opacity:1;fill-rule:nonzero;stroke:none"
           id="path2406"
           inkscape:connector-curvature="0" /><path
           d="m 348.839,302.767 v 4.325 c 1.84,0.141 3.775,0.838 5.805,2.089 1.085,0.684 2.051,1.599 2.901,2.744 0.85,1.144 1.486,2.402 1.911,3.771 0.236,0.755 0.514,1.292 0.832,1.611 0.318,0.318 0.737,0.478 1.257,0.478 0.565,0 1.037,-0.213 1.415,-0.638 0.377,-0.425 0.566,-0.957 0.566,-1.593 0,-1.063 -0.407,-2.35 -1.221,-3.862 -0.815,-1.511 -1.859,-2.904 -3.132,-4.179 -1.558,-1.559 -3.156,-2.716 -4.796,-3.472 -1.64,-0.755 -3.485,-1.18 -5.538,-1.274 m -0.125,45.968 v 4.284 c 1.158,-0.187 2.098,-0.385 2.818,-0.594 0.721,-0.209 2.028,-0.651 3.918,-1.324 1.205,-0.419 2.009,-0.628 2.411,-0.628 0.686,0 1.205,0.299 1.561,0.9 l 0.461,0.831 c 0.283,0.554 0.815,0.831 1.596,0.831 0.637,0 1.127,-0.187 1.47,-0.561 0.343,-0.375 0.515,-0.925 0.515,-1.65 v -14.728 c 0,-0.943 -0.213,-1.626 -0.639,-2.05 -0.426,-0.424 -0.91,-0.636 -1.453,-0.636 -0.568,0 -1.023,0.183 -1.365,0.549 -0.343,0.365 -0.62,0.961 -0.833,1.787 -0.497,1.863 -0.982,3.326 -1.454,4.389 -1.017,2.241 -2.175,4.057 -3.475,5.45 -0.875,0.943 -1.749,1.669 -2.624,2.177 -0.875,0.508 -1.844,0.832 -2.907,0.973 m -2.813,4.32 v -4.284 c -1.386,-0.213 -2.421,-0.827 -3.102,-1.84 -0.682,-1.015 -1.023,-2.466 -1.023,-4.353 v -29.282 -1.525 c 0,-0.543 0.112,-1.117 0.335,-1.719 0.223,-0.603 0.511,-1.116 0.864,-1.542 0.376,-0.473 0.775,-0.81 1.199,-1.011 0.423,-0.201 0.999,-0.337 1.727,-0.407 v -4.325 c -4.582,0 -8.562,1.193 -11.939,3.58 -2.976,2.102 -5.219,4.931 -6.731,8.488 -1.511,3.557 -2.267,7.769 -2.267,12.637 0,3.567 0.489,6.892 1.47,9.976 0.98,3.084 2.403,5.76 4.269,8.03 1.889,2.291 4.151,4.133 6.784,5.528 2.633,1.394 5.166,2.092 7.6,2.092 z"
           style="fill:#ed1c24;fill-opacity:1;fill-rule:nonzero;stroke:none"
           id="path2408"
           inkscape:connector-curvature="0" /><path
           d="m 399.057,327.444 c 2.169,-0.331 3.837,-0.697 5.004,-1.099 1.167,-0.403 2.221,-0.946 3.165,-1.631 0.99,-0.733 1.75,-1.608 2.281,-2.624 0.53,-1.017 0.796,-2.092 0.796,-3.227 v -7.34 c 0,-0.742 0.247,-1.113 0.742,-1.113 0.188,0 0.348,0.052 0.477,0.155 0.129,0.104 0.313,0.306 0.549,0.606 0.589,0.784 1.19,1.177 1.803,1.177 0.4,0 0.802,-0.212 1.202,-0.636 0.401,-0.424 0.602,-0.847 0.602,-1.27 0,-0.729 -0.349,-1.617 -1.044,-2.664 -0.696,-1.047 -1.562,-1.982 -2.599,-2.805 -0.967,-0.777 -2.016,-1.334 -3.147,-1.676 -1.132,-0.341 -2.464,-0.512 -3.996,-0.512 -3.113,0 -5.541,0.891 -7.286,2.672 -1.744,1.781 -2.616,4.264 -2.616,7.449 v 5.957 c 0,1.324 -0.012,2.092 -0.036,2.305 -0.119,0.945 -0.452,1.761 -1,2.446 -0.69,0.827 -1.679,1.312 -2.964,1.454 v 3.794 c 1.285,0.189 2.202,0.52 2.75,0.993 0.476,0.425 0.803,0.91 0.982,1.454 0.178,0.543 0.268,1.346 0.268,2.411 v 9.379 c 0,1.488 -0.29,2.597 -0.868,3.33 -0.579,0.732 -1.624,1.31 -3.136,1.736 v 3.933 h 0.92 c 2.618,0 4.848,-0.095 6.688,-0.284 2.736,-0.259 5.177,-1.157 7.324,-2.692 3.09,-2.196 4.635,-5.325 4.635,-9.387 0,-3.33 -1.038,-6.056 -3.113,-8.181 -0.873,-0.899 -1.893,-1.631 -3.06,-2.198 -1.168,-0.566 -2.942,-1.204 -5.323,-1.912 m -10.879,24.654 v -41.639 c 0,-0.922 0.176,-1.584 0.529,-1.985 0.188,-0.237 0.364,-0.385 0.529,-0.444 0.164,-0.059 0.705,-0.207 1.623,-0.443 1.129,-0.26 1.694,-0.91 1.694,-1.95 0,-0.615 -0.306,-1.111 -0.917,-1.489 -0.448,-0.284 -1.189,-0.425 -2.224,-0.425 h -1.199 -15.82 -0.922 c -0.854,0 -1.512,0.159 -1.975,0.478 -0.463,0.319 -0.693,0.774 -0.693,1.365 0,0.969 0.473,1.608 1.422,1.915 0.781,0.26 1.237,0.419 1.368,0.479 0.13,0.059 0.265,0.194 0.408,0.407 0.284,0.378 0.427,0.981 0.427,1.809 v 35.481 c 0,0.825 -0.143,1.427 -0.427,1.805 -0.143,0.212 -0.278,0.348 -0.408,0.406 -0.131,0.059 -0.587,0.219 -1.368,0.479 -0.949,0.306 -1.422,0.943 -1.422,1.911 0,0.59 0.23,1.044 0.693,1.362 0.463,0.318 1.121,0.478 1.975,0.478 h 0.922 z"
           style="fill:#ed1c24;fill-opacity:1;fill-rule:nonzero;stroke:none"
           id="path2410"
           inkscape:connector-curvature="0" /><path
           d="m 442.092,303.723 v 3.825 c 1.536,0.236 2.806,0.566 3.811,0.992 1.004,0.425 2.015,1.074 3.032,1.948 1.016,0.873 1.826,1.777 2.428,2.709 0.603,0.933 1.176,2.167 1.72,3.702 0.26,0.756 0.532,1.27 0.815,1.541 0.284,0.272 0.674,0.408 1.171,0.408 0.661,0 1.122,-0.196 1.382,-0.585 0.26,-0.39 0.391,-1.069 0.391,-2.036 v -12.504 z m 0,48.375 h 14.25 V 339.57 c 0,-0.735 -0.142,-1.268 -0.425,-1.6 -0.283,-0.332 -0.73,-0.497 -1.343,-0.497 -0.519,0 -0.896,0.105 -1.132,0.318 -0.236,0.213 -0.46,0.649 -0.671,1.311 -0.897,2.739 -2.211,4.829 -3.944,6.269 -1.732,1.441 -3.977,2.303 -6.735,2.586 z m -0.25,-25.788 v 4.113 c 1.372,0.657 2.389,1.374 3.052,2.149 0.662,0.776 1.147,1.809 1.455,3.102 0.189,0.892 0.437,1.509 0.745,1.849 0.307,0.341 0.745,0.512 1.313,0.512 0.757,0 1.278,-0.291 1.562,-0.872 0.165,-0.303 0.248,-0.989 0.248,-2.059 v -13.51 c 0,-1.108 -0.125,-1.874 -0.373,-2.298 -0.248,-0.424 -0.704,-0.636 -1.366,-0.636 -0.544,0 -0.97,0.165 -1.278,0.495 -0.307,0.33 -0.555,0.886 -0.745,1.665 -0.402,1.629 -0.976,2.88 -1.722,3.754 -0.745,0.873 -1.709,1.452 -2.891,1.736 m -2.938,25.788 v -48.375 h -15.785 -0.922 c -0.853,0 -1.511,0.159 -1.974,0.478 -0.463,0.319 -0.694,0.774 -0.694,1.365 0,0.969 0.474,1.608 1.422,1.915 0.781,0.26 1.237,0.419 1.368,0.479 0.13,0.059 0.266,0.194 0.409,0.407 0.284,0.378 0.426,0.981 0.426,1.809 v 35.481 c 0,0.825 -0.142,1.427 -0.426,1.805 -0.143,0.212 -0.279,0.348 -0.409,0.406 -0.131,0.059 -0.587,0.219 -1.368,0.479 -0.948,0.306 -1.422,0.943 -1.422,1.911 0,0.59 0.231,1.044 0.694,1.362 0.463,0.318 1.121,0.478 1.974,0.478 h 0.922 z"
           style="fill:#ed1c24;fill-opacity:1;fill-rule:nonzero;stroke:none"
           id="path2412"
           inkscape:connector-curvature="0" /><path
           d="m 500.858,352.098 v -14.492 c 0,-0.691 -0.195,-1.251 -0.585,-1.678 -0.389,-0.429 -0.89,-0.643 -1.503,-0.643 -0.591,0 -1.082,0.194 -1.47,0.585 -0.39,0.391 -0.644,0.929 -0.762,1.616 l -0.353,2.165 c -0.355,2.201 -1.039,4.106 -2.054,5.715 -0.638,0.994 -1.499,1.811 -2.585,2.449 v 4.283 z m -12.25,0 v -41.639 c 0,-0.922 0.176,-1.584 0.53,-1.985 0.187,-0.237 0.364,-0.385 0.529,-0.444 0.164,-0.059 0.705,-0.207 1.623,-0.443 1.129,-0.26 1.693,-0.91 1.693,-1.95 0,-0.615 -0.305,-1.111 -0.917,-1.489 -0.447,-0.284 -1.2,-0.425 -2.258,-0.425 h -1.164 -15.821 -1.174 c -1.044,0 -1.833,0.159 -2.366,0.478 -0.533,0.319 -0.8,0.797 -0.8,1.436 0,1.04 0.569,1.69 1.707,1.95 0.925,0.236 1.471,0.384 1.637,0.443 0.166,0.059 0.332,0.207 0.498,0.444 0.356,0.401 0.533,1.063 0.533,1.985 v 41.639 z m -27.937,0 h 9.312 v -4.283 c -1.109,-0.638 -1.971,-1.455 -2.585,-2.449 -1.015,-1.609 -1.7,-3.514 -2.053,-5.715 l -0.354,-2.165 c -0.119,-0.687 -0.373,-1.225 -0.762,-1.616 -0.389,-0.391 -0.879,-0.585 -1.469,-0.585 -0.614,0 -1.115,0.214 -1.505,0.643 -0.39,0.427 -0.584,0.987 -0.584,1.678 z"
           style="fill:#ed1c24;fill-opacity:1;fill-rule:nonzero;stroke:none"
           id="path2414"
           inkscape:connector-curvature="0" /></g></g></g></svg>