<svg xmlns="http://www.w3.org/2000/svg" viewBox="0 0 400 280" role="img">
  <title>Book catalog</title>
  <defs>
    <linearGradient id="bk-bg" x1="0%" y1="0%" x2="100%" y2="100%">
      <stop offset="0%" stop-color="#1a1624"/>
      <stop offset="100%" stop-color="#0c0a10"/>
    </linearGradient>
    <linearGradient id="bk-cover-l" x1="0%" y1="0%" x2="100%" y2="0%">
      <stop offset="0%" stop-color="#4a3d62"/>
      <stop offset="100%" stop-color="#2a2438"/>
    </linearGradient>
    <linearGradient id="bk-cover-r" x1="0%" y1="0%" x2="100%" y2="0%">
      <stop offset="0%" stop-color="#3d3550"/>
      <stop offset="100%" stop-color="#221c30"/>
    </linearGradient>
    <linearGradient id="bk-page" x1="0%" y1="0%" x2="100%" y2="0%">
      <stop offset="0%" stop-color="#e8e4f0"/>
      <stop offset="100%" stop-color="#c8c0d8"/>
    </linearGradient>
    <linearGradient id="bk-ribbon" x1="0%" y1="0%" x2="0%" y2="100%">
      <stop offset="0%" stop-color="#7dd4bd"/>
      <stop offset="100%" stop-color="#3d9078"/>
    </linearGradient>
    <filter id="bk-sh" x="-10%" y="-10%" width="120%" height="120%">
      <feDropShadow dx="4" dy="6" stdDeviation="8" flood-color="#000" flood-opacity="0.5"/>
    </filter>
  </defs>
  <rect width="400" height="280" rx="22" fill="url(#bk-bg)"/>
  <rect x="20" y="20" width="360" height="240" rx="18" fill="none" stroke="#B8A9E8" stroke-width="1.25" opacity="0.35"/>

  <g filter="url(#bk-sh)">
    <path d="M200 68c-4 0-8 1-11 3h-62c-10 0-18 8-18 18v152c0 10 8 18 18 18h62c3 2 7 3 11 3s8-1 11-3h62c10 0 18-8 18-18V89c0-10-8-18-18-18h-62c-3-2-7-3-11-3z" fill="#0a0810" opacity="0.4"/>
    <path d="M118 74h74v168h-74c-6 0-11-5-11-11V85c0-6 5-11 11-11z" fill="url(#bk-cover-l)" stroke="#B8A9E8" stroke-width="1" stroke-opacity="0.35"/>
    <path d="M208 74h74c6 0 11 5 11 11v146c0 6-5 11-11 11h-74V74z" fill="url(#bk-cover-r)" stroke="#B8A9E8" stroke-width="1" stroke-opacity="0.25"/>
    <rect x="192" y="74" width="16" height="168" fill="#1a1420"/>
    <rect x="130" y="96" width="52" height="118" rx="2" fill="url(#bk-page)" opacity="0.92"/>
    <rect x="218" y="96" width="52" height="118" rx="2" fill="url(#bk-page)" opacity="0.75"/>
    <g stroke="#a098b8" stroke-width="1" opacity="0.35">
      <line x1="138" y1="112" x2="174" y2="112"/><line x1="138" y1="128" x2="170" y2="128"/><line x1="138" y1="144" x2="176" y2="144"/>
      <line x1="226" y1="112" x2="262" y2="112"/><line x1="226" y1="128" x2="258" y2="128"/>
    </g>
    <path d="M196 64v188l-8-14v-174l8-8v8z" fill="url(#bk-ribbon)"/>
    <path d="M196 64l8 8v174l-8 14V64z" fill="#5ec4a8" opacity="0.85"/>
  </g>
  <text x="200" y="252" text-anchor="middle" fill="#7dd4bd" font-family="system-ui,Segoe UI,sans-serif" font-size="11" font-weight="700" letter-spacing="0.42em">CATALOG</text>
</svg>
