<svg xmlns="http://www.w3.org/2000/svg" viewBox="0 0 400 280" role="img">
  <title>MyLifeTime</title>
  <defs>
    <linearGradient id="ml-bg" x1="0%" y1="0%" x2="100%" y2="100%">
      <stop offset="0%" stop-color="#1c1628"/>
      <stop offset="55%" stop-color="#14101c"/>
      <stop offset="100%" stop-color="#0c0812"/>
    </linearGradient>
    <linearGradient id="ml-accent" x1="0%" y1="0%" x2="100%" y2="0%">
      <stop offset="0%" stop-color="#8B5FBF"/>
      <stop offset="100%" stop-color="#2EE6A8"/>
    </linearGradient>
    <linearGradient id="ml-ring" x1="0%" y1="0%" x2="0%" y2="100%">
      <stop offset="0%" stop-color="#B8A9E8"/>
      <stop offset="100%" stop-color="#7a6a9a"/>
    </linearGradient>
  </defs>
  <rect width="400" height="280" rx="22" fill="url(#ml-bg)"/>
  <rect x="20" y="20" width="360" height="240" rx="18" fill="none" stroke="url(#ml-ring)" stroke-width="1.25" opacity="0.4"/>

  <rect x="128" y="52" width="144" height="176" rx="22" fill="#121018" stroke="#B8A9E8" stroke-width="1.5" opacity="0.55"/>
  <rect x="140" y="64" width="120" height="28" rx="8" fill="#1e1a28" stroke="#8B5FBF" stroke-width="1" opacity="0.6"/>
  <circle cx="200" cy="78" r="4" fill="#2EE6A8"/>

  <circle cx="200" cy="148" r="52" fill="none" stroke="url(#ml-accent)" stroke-width="2.5" stroke-linecap="round" opacity="0.9"/>
  <circle cx="200" cy="148" r="36" fill="none" stroke="#8B5FBF" stroke-width="1.5" stroke-dasharray="4 6" opacity="0.45"/>
  <line x1="200" y1="96" x2="200" y2="108" stroke="#2EE6A8" stroke-width="2.5" stroke-linecap="round"/>
  <line x1="200" y1="188" x2="200" y2="200" stroke="#8B5FBF" stroke-width="2" stroke-linecap="round" opacity="0.7"/>
  <line x1="152" y1="148" x2="164" y2="148" stroke="#2EE6A8" stroke-width="2" stroke-linecap="round"/>
  <line x1="236" y1="148" x2="248" y2="148" stroke="#8B5FBF" stroke-width="2" stroke-linecap="round" opacity="0.7"/>

  <circle cx="200" cy="148" r="6" fill="#2EE6A8"/>
  <path d="M200 148 L228 128" stroke="#2EE6A8" stroke-width="2" stroke-linecap="round"/>

  <g fill="none" stroke="#7dd4bd" stroke-width="2" stroke-linecap="round" opacity="0.75">
    <path d="M156 196h88"/>
    <path d="M168 208h64"/>
  </g>

  <rect x="88" y="118" width="28" height="8" rx="4" fill="#8B5FBF" opacity="0.35"/>
  <rect x="284" y="162" width="28" height="8" rx="4" fill="#2EE6A8" opacity="0.35"/>

  <text x="200" y="252" text-anchor="middle" fill="#6d6588" font-family="system-ui,Segoe UI,sans-serif" font-size="10" font-weight="600" letter-spacing="0.32em">HYPER CALENDAR</text>
</svg>
