<svg xmlns="http://www.w3.org/2000/svg" viewBox="0 0 400 280" role="img">
  <title>FilmAPI</title>
  <rect width="400" height="280" fill="#1a1a22"/>
  <g transform="translate(200 148)">
    <path fill="#c0392b" d="M-72-40 L72-40 L72 40 L-72 40 Z"/>
    <path fill="#e74c3c" d="M-72-40 L0-72 L72-40 Z"/>
    <path fill="#922b21" d="M-72 40 L0 72 L72 40 Z"/>
    <rect x="-56" y="-24" width="112" height="48" fill="#1a1a22" opacity="0.6"/>
    <g fill="#f0c040">
      <rect x="-48" y="-16" width="16" height="12" rx="1"/>
      <rect x="-24" y="-16" width="16" height="12" rx="1"/>
      <rect x="0" y="-16" width="16" height="12" rx="1"/>
      <rect x="24" y="-16" width="16" height="12" rx="1"/>
      <rect x="-48" y="4" width="16" height="12" rx="1"/>
      <rect x="-24" y="4" width="16" height="12" rx="1"/>
      <rect x="0" y="4" width="16" height="12" rx="1"/>
      <rect x="24" y="4" width="16" height="12" rx="1"/>
    </g>
  </g>
</svg>
