<svg xmlns="http://www.w3.org/2000/svg" viewBox="0 0 400 280" role="img">
  <title>Palette generator</title>
  <defs>
    <linearGradient id="pal-bg" x1="0%" y1="0%" x2="100%" y2="100%">
      <stop offset="0%" stop-color="#16121e"/>
      <stop offset="100%" stop-color="#0a0810"/>
    </linearGradient>
    <filter id="pal-ds" x="-25%" y="-25%" width="150%" height="150%">
      <feDropShadow dx="0" dy="5" stdDeviation="6" flood-color="#000" flood-opacity="0.45"/>
    </filter>
    <radialGradient id="pal-c1" cx="30%" cy="30%" r="70%"><stop offset="0%" stop-color="#c49ef0"/><stop offset="100%" stop-color="#6b3d9a"/></radialGradient>
    <radialGradient id="pal-c2" cx="30%" cy="30%" r="70%"><stop offset="0%" stop-color="#7ee8c8"/><stop offset="100%" stop-color="#2a8068"/></radialGradient>
    <radialGradient id="pal-c3" cx="30%" cy="30%" r="70%"><stop offset="0%" stop-color="#f0a0a8"/><stop offset="100%" stop-color="#904850"/></radialGradient>
    <radialGradient id="pal-c4" cx="30%" cy="30%" r="70%"><stop offset="0%" stop-color="#f8e8a0"/><stop offset="100%" stop-color="#b89840"/></radialGradient>
  </defs>
  <rect width="400" height="280" rx="22" fill="url(#pal-bg)"/>
  <rect x="20" y="20" width="360" height="240" rx="18" fill="none" stroke="#B8A9E8" stroke-width="1.25" opacity="0.35"/>

  <rect x="56" y="168" width="120" height="36" rx="8" fill="#1a1524" stroke="#B8A9E8" stroke-width="1" opacity="0.45"/>
  <rect x="64" y="176" width="28" height="20" rx="4" fill="#9b6bd4"/>
  <text x="104" y="190" fill="#c8c0d8" font-family="Consolas,monospace" font-size="12" font-weight="600">#9B6BD4</text>

  <g filter="url(#pal-ds)">
    <circle cx="118" cy="118" r="46" fill="url(#pal-c1)" fill-opacity="0.92" stroke="#B8A9E8" stroke-width="1" stroke-opacity="0.35"/>
    <circle cx="178" cy="118" r="46" fill="url(#pal-c2)" fill-opacity="0.88" stroke="#B8A9E8" stroke-width="1" stroke-opacity="0.35"/>
    <circle cx="238" cy="118" r="46" fill="url(#pal-c3)" fill-opacity="0.85" stroke="#B8A9E8" stroke-width="1" stroke-opacity="0.35"/>
    <circle cx="298" cy="118" r="46" fill="url(#pal-c4)" fill-opacity="0.82" stroke="#B8A9E8" stroke-width="1" stroke-opacity="0.35"/>
  </g>
  <g fill="none" stroke="#fff" stroke-width="1.5" stroke-linecap="round" opacity="0.25">
    <path d="M88 200c32-8 64-8 96 0"/><path d="M104 208h64"/>
  </g>
  <text x="200" y="252" text-anchor="middle" fill="#9a8bb8" font-family="system-ui,Segoe UI,sans-serif" font-size="10" font-weight="700" letter-spacing="0.35em">HEX / HSL</text>
</svg>
