<svg xmlns="http://www.w3.org/2000/svg" viewBox="0 0 400 280" role="img">
  <title>UAV flight analytics</title>
  <defs>
    <linearGradient id="da-bg" x1="0%" y1="0%" x2="100%" y2="100%">
      <stop offset="0%" stop-color="#141828"/>
      <stop offset="50%" stop-color="#14101c"/>
      <stop offset="100%" stop-color="#0a0e14"/>
    </linearGradient>
    <linearGradient id="da-accent" x1="0%" y1="0%" x2="100%" y2="0%">
      <stop offset="0%" stop-color="#8B5FBF"/>
      <stop offset="100%" stop-color="#2EE6A8"/>
    </linearGradient>
  </defs>
  <rect width="400" height="280" rx="22" fill="url(#da-bg)"/>
  <rect x="20" y="20" width="360" height="240" rx="18" fill="none" stroke="#B8A9E8" stroke-width="1.25" opacity="0.35"/>

  <path d="M48 200 L120 168 L200 184 L280 152 L352 176" fill="none" stroke="#2a3348" stroke-width="2" opacity="0.6"/>
  <path d="M48 200 L120 168 L200 184 L280 152 L352 176" fill="none" stroke="url(#da-accent)" stroke-width="2.5" stroke-linecap="round" stroke-linejoin="round" opacity="0.85"/>
  <circle cx="120" cy="168" r="5" fill="#8B5FBF"/>
  <circle cx="200" cy="184" r="5" fill="#a78bfa"/>
  <circle cx="280" cy="152" r="5" fill="#2EE6A8"/>

  <g stroke-linecap="round" stroke-linejoin="round" fill="none">
    <line x1="200" y1="108" x2="152" y2="88" stroke="#B8A9E8" stroke-width="2.5" opacity="0.7"/>
    <line x1="200" y1="108" x2="248" y2="88" stroke="#B8A9E8" stroke-width="2.5" opacity="0.7"/>
    <line x1="200" y1="108" x2="128" y2="120" stroke="#B8A9E8" stroke-width="2.5" opacity="0.7"/>
    <line x1="200" y1="108" x2="272" y2="120" stroke="#B8A9E8" stroke-width="2.5" opacity="0.7"/>
    <circle cx="152" cy="88" r="14" fill="#1e1a28" stroke="#8B5FBF" stroke-width="2"/>
    <circle cx="248" cy="88" r="14" fill="#1e1a28" stroke="#8B5FBF" stroke-width="2"/>
    <circle cx="128" cy="120" r="14" fill="#1e1a28" stroke="#2EE6A8" stroke-width="2"/>
    <circle cx="272" cy="120" r="14" fill="#1e1a28" stroke="#2EE6A8" stroke-width="2"/>
    <rect x="184" y="96" width="32" height="24" rx="6" fill="#1e1a28" stroke="url(#da-accent)" stroke-width="2"/>
  </g>

  <path d="M192 104h16v8h-16z" fill="#2EE6A8" opacity="0.5"/>

  <g fill="none" stroke="#7dd4bd" stroke-width="1.5" stroke-linecap="round" opacity="0.4">
    <path d="M72 88h24M88 72v24"/>
    <path d="M304 88h24M320 72v24"/>
  </g>

  <text x="200" y="248" text-anchor="middle" fill="#6d7380" font-family="system-ui,Segoe UI,sans-serif" font-size="10" font-weight="600" letter-spacing="0.28em">GEO ANALYTICS</text>
</svg>
