<svg xmlns="http://www.w3.org/2000/svg" viewBox="0 0 400 280" role="img">
  <title>Tech Week Planner</title>
  <rect width="400" height="280" fill="#eef1f6"/>
  <rect x="96" y="56" width="208" height="168" rx="8" fill="#fff" stroke="#1e3a5f" stroke-width="2"/>
  <rect x="96" y="56" width="208" height="36" rx="8" fill="#1e3a5f"/>
  <rect x="96" y="80" width="208" height="12" fill="#1e3a5f"/>
  <g>
    <rect x="108" y="100" width="24" height="24" rx="3" fill="#e85d4c"/>
    <rect x="140" y="100" width="24" height="24" rx="3" fill="#eef1f6" stroke="#c8d0dc" stroke-width="1.5"/>
    <rect x="172" y="100" width="24" height="24" rx="3" fill="#eef1f6" stroke="#c8d0dc" stroke-width="1.5"/>
    <rect x="204" y="100" width="24" height="24" rx="3" fill="#eef1f6" stroke="#c8d0dc" stroke-width="1.5"/>
    <rect x="236" y="100" width="24" height="24" rx="3" fill="#eef1f6" stroke="#c8d0dc" stroke-width="1.5"/>
    <rect x="268" y="100" width="24" height="24" rx="3" fill="#eef1f6" stroke="#c8d0dc" stroke-width="1.5"/>
    <rect x="108" y="132" width="24" height="24" rx="3" fill="#eef1f6" stroke="#c8d0dc" stroke-width="1.5"/>
    <rect x="140" y="132" width="24" height="24" rx="3" fill="#1e3a5f"/>
    <rect x="172" y="132" width="24" height="24" rx="3" fill="#eef1f6" stroke="#c8d0dc" stroke-width="1.5"/>
    <rect x="204" y="132" width="24" height="24" rx="3" fill="#e85d4c" opacity="0.7"/>
    <rect x="236" y="132" width="24" height="24" rx="3" fill="#eef1f6" stroke="#c8d0dc" stroke-width="1.5"/>
    <rect x="268" y="132" width="24" height="24" rx="3" fill="#eef1f6" stroke="#c8d0dc" stroke-width="1.5"/>
    <rect x="108" y="164" width="24" height="24" rx="3" fill="#eef1f6" stroke="#c8d0dc" stroke-width="1.5"/>
    <rect x="140" y="164" width="24" height="24" rx="3" fill="#eef1f6" stroke="#c8d0dc" stroke-width="1.5"/>
    <rect x="172" y="164" width="24" height="24" rx="3" fill="#eef1f6" stroke="#c8d0dc" stroke-width="1.5"/>
    <rect x="204" y="164" width="24" height="24" rx="3" fill="#1e3a5f" opacity="0.5"/>
    <rect x="236" y="164" width="24" height="24" rx="3" fill="#eef1f6" stroke="#c8d0dc" stroke-width="1.5"/>
    <rect x="268" y="164" width="24" height="24" rx="3" fill="#e85d4c"/>
  </g>
</svg>
