<svg xmlns="http://www.w3.org/2000/svg" viewBox="0 0 400 280" role="img">
  <title>Catologist of Books</title>
  <rect width="400" height="280" fill="#f4f1ea"/>
  <path fill="#2d5a45" d="M148 72h48v176c-16-8-32-8-48 0V72z"/>
  <path fill="#3d7a5c" d="M196 72h48v176c-16-8-32-8-48 0V72z"/>
  <path fill="#1e4535" d="M148 72c16-12 32-12 48 0 16-12 32-12 48 0v8c-16-8-32-8-48 0-16-8-32-8-48 0v-8z"/>
  <rect x="168" y="96" width="64" height="3" rx="1.5" fill="#f4f1ea" opacity="0.5"/>
  <rect x="168" y="112" width="48" height="3" rx="1.5" fill="#f4f1ea" opacity="0.35"/>
  <rect x="168" y="128" width="56" height="3" rx="1.5" fill="#f4f1ea" opacity="0.35"/>
</svg>
