<svg xmlns="http://www.w3.org/2000/svg" viewBox="0 0 400 280" role="img">
  <title>MestoSlov</title>
  <defs>
    <linearGradient id="ms-bg" x1="0%" y1="0%" x2="100%" y2="100%">
      <stop offset="0%" stop-color="#1a2235"/>
      <stop offset="100%" stop-color="#0e1218"/>
    </linearGradient>
    <linearGradient id="ms-pin" x1="0%" y1="0%" x2="0%" y2="100%">
      <stop offset="0%" stop-color="#8B5FBF"/>
      <stop offset="100%" stop-color="#7C3AED"/>
    </linearGradient>
  </defs>
  <rect width="400" height="280" rx="22" fill="url(#ms-bg)"/>
  <rect x="20" y="20" width="360" height="240" rx="18" fill="none" stroke="#B8A9E8" stroke-width="1.25" opacity="0.35"/>

  <path d="M72 200c40-28 80-40 128-40s88 12 128 40" fill="none" stroke="#2a3348" stroke-width="2" opacity="0.5"/>
  <path d="M96 188c32-20 64-30 104-30s72 10 104 30" fill="none" stroke="#354258" stroke-width="1.5" opacity="0.4"/>

  <path d="M200 72c-36 0-64 28-64 64 0 48 64 96 64 96s64-48 64-96c0-36-28-64-64-64z" fill="none" stroke="url(#ms-pin)" stroke-width="2.5" stroke-linejoin="round"/>
  <circle cx="200" cy="128" r="22" fill="#14101c" stroke="#2EE6A8" stroke-width="2"/>

  <path d="M188 120c0-8 6-14 12-14s12 6 12 14v6h-24v-6z" fill="none" stroke="#2EE6A8" stroke-width="2" stroke-linecap="round"/>
  <path d="M194 108c0-4 3-7 6-7s6 3 6 7" fill="none" stroke="#B8A9E8" stroke-width="2" stroke-linecap="round"/>

  <g fill="none" stroke="#7dd4bd" stroke-width="2" stroke-linecap="round" opacity="0.8">
    <path d="M168 132c-8 4-12 10-12 16 0 12 16 20 16 20"/>
    <path d="M232 132c8 4 12 10 12 16 0 12-16 20-16 20"/>
    <path d="M176 124v-8M184 116v-4M192 112v-2"/>
    <path d="M224 124v-8M216 116v-4M208 112v-2"/>
  </g>

  <text x="200" y="248" text-anchor="middle" fill="#9a8bb8" font-family="system-ui,Segoe UI,sans-serif" font-size="11" font-weight="700" letter-spacing="0.22em">AUDIO TOURS</text>
</svg>
