<svg xmlns="http://www.w3.org/2000/svg" viewBox="0 0 400 280" role="img">
  <title>Calculate WEB</title>
  <rect width="400" height="280" fill="#f8f8f8"/>
  <g fill="none" stroke="#333" stroke-width="2" stroke-linecap="round" stroke-linejoin="round">
    <rect x="128" y="48" width="144" height="184" rx="12"/>
    <rect x="144" y="64" width="112" height="32" rx="4"/>
    <line x1="152" y1="116" x2="176" y2="116"/>
    <line x1="184" y1="116" x2="208" y2="116"/>
    <line x1="216" y1="116" x2="240" y2="116"/>
    <line x1="152" y1="140" x2="176" y2="140"/>
    <line x1="184" y1="140" x2="208" y2="140"/>
    <line x1="216" y1="140" x2="240" y2="140"/>
    <line x1="152" y1="164" x2="176" y2="164"/>
    <line x1="184" y1="164" x2="208" y2="164"/>
    <line x1="216" y1="164" x2="240" y2="164"/>
    <line x1="152" y1="188" x2="176" y2="188"/>
    <line x1="184" y1="188" x2="208" y2="188"/>
    <line x1="216" y1="188" x2="240" y2="188"/>
    <line x1="152" y1="212" x2="176" y2="212"/>
    <line x1="184" y1="212" x2="240" y2="212"/>
  </g>
</svg>
