<svg xmlns="http://www.w3.org/2000/svg" viewBox="0 0 400 280" role="img">
  <title>Weather app</title>
  <rect width="400" height="280" fill="#f5f0e6"/>
  <g fill="none" stroke="#2c3440" stroke-width="3" stroke-linecap="round" stroke-linejoin="round">
    <circle cx="168" cy="118" r="36"/>
    <line x1="168" y1="62" x2="168" y2="52"/>
    <line x1="168" y1="174" x2="168" y2="184"/>
    <line x1="112" y1="118" x2="102" y2="118"/>
    <line x1="224" y1="118" x2="234" y2="118"/>
    <line x1="128" y1="78" x2="121" y2="71"/>
    <line x1="208" y1="158" x2="215" y2="165"/>
    <line x1="128" y1="158" x2="121" y2="165"/>
    <line x1="208" y1="78" x2="215" y2="71"/>
    <path d="M248 168c0-22 18-40 40-40 8 0 15 2 21 6-3-18-18-32-37-32-21 0-38 17-38 38 0 2 0 4 1 6-14 4-24 17-24 32 0 19 15 34 34 34h44c15 0 27-12 27-27 0-12-8-22-19-25-5-8-14-14-24-14-12 0-23 8-27 20z"/>
  </g>
</svg>
