<svg xmlns="http://www.w3.org/2000/svg" viewBox="0 0 400 280" role="img">
  <title>ObscurVPN</title>
  <rect width="400" height="280" rx="20" fill="#14101c"/>
  <rect x="24" y="24" width="352" height="232" rx="16" fill="none" stroke="#B8A9E8" stroke-width="1.5" opacity="0.35"/>
  <path d="M200 56 L280 96v64c0 48-32 88-80 100-48-12-80-52-80-100V96l80-40z" fill="none" stroke="#B8A9E8" stroke-width="2.5" stroke-linejoin="round" opacity="0.9"/>
  <rect x="176" y="120" width="48" height="40" rx="6" fill="none" stroke="#7dd4bd" stroke-width="2"/>
  <path d="M192 120v-12c0-8 8-14 16-14h8c8 0 14 6 14 14v12" fill="none" stroke="#7dd4bd" stroke-width="2" stroke-linecap="round"/>
  <circle cx="200" cy="142" r="4" fill="#7dd4bd" opacity="0.9"/>
  <path d="M72 200c48-24 96-24 144 0s96 24 144 0" fill="none" stroke="#B8A9E8" stroke-width="1" opacity="0.25"/>
  <text x="200" y="236" text-anchor="middle" fill="#6d7380" font-family="system-ui,sans-serif" font-size="11" font-weight="600" letter-spacing="0.18em">PRIVATE</text>
</svg>
